<svg width="24" height="24" viewBox="0 0 24 24" fill="none" xmlns="http://www.w3.org/2000/svg">
<g clip-path="url(#clip0_2_57750)">
<path d="M20.0389 16.857C22.5904 14.58 24.0004 12 24.0004 12C24.0004 12 19.5004 3.75 12.0004 3.75C10.5598 3.75496 9.13551 4.05514 7.81543 4.632L8.97043 5.7885C9.94158 5.43473 10.9669 5.25252 12.0004 5.25C15.1804 5.25 17.8189 7.002 19.7524 8.9355C20.683 9.87104 21.5172 10.8977 22.2424 12C22.1554 12.1305 22.0594 12.2745 21.9499 12.432C21.4474 13.152 20.7049 14.112 19.7524 15.0645C19.5049 15.312 19.2469 15.5565 18.9769 15.7935L20.0389 16.857Z" fill="black"/>
<path d="M16.9451 13.764C17.2798 12.8277 17.3418 11.8157 17.1238 10.8456C16.9058 9.87552 16.4169 8.98727 15.7138 8.28421C15.0108 7.58115 14.1225 7.09219 13.1524 6.87423C12.1823 6.65626 11.1703 6.71825 10.2341 7.05298L11.4686 8.28748C12.045 8.20497 12.6328 8.25785 13.1853 8.44193C13.7377 8.626 14.2398 8.93622 14.6515 9.348C15.0633 9.75978 15.3735 10.2618 15.5576 10.8143C15.7417 11.3668 15.7946 11.9545 15.7121 12.531L16.9451 13.764ZM12.5306 15.7125L13.7636 16.9455C12.8273 17.2802 11.8153 17.3422 10.8452 17.1242C9.87509 16.9063 8.98684 16.4173 8.28378 15.7143C7.58072 15.0112 7.09177 14.1229 6.8738 13.1529C6.65583 12.1828 6.71782 11.1707 7.05256 10.2345L8.28705 11.469C8.20454 12.0454 8.25742 12.6332 8.4415 13.1857C8.62558 13.7382 8.9358 14.2402 9.34757 14.652C9.75935 15.0637 10.2614 15.374 10.8138 15.558C11.3663 15.7421 11.9541 15.795 12.5306 15.7125Z" fill="black"/>
<path d="M5.025 8.20499C4.755 8.44499 4.4955 8.68799 4.248 8.93549C3.31747 9.87103 2.48328 10.8977 1.758 12L2.0505 12.432C2.553 13.152 3.2955 14.112 4.248 15.0645C6.1815 16.998 8.8215 18.75 12 18.75C13.074 18.75 14.085 18.5505 15.03 18.21L16.185 19.368C14.8649 19.9448 13.4406 20.245 12 20.25C4.5 20.25 0 12 0 12C0 12 1.4085 9.41849 3.9615 7.14299L5.0235 8.20649L5.025 8.20499ZM20.469 21.531L2.469 3.53099L3.531 2.46899L21.531 20.469L20.469 21.531Z" fill="black"/>
</g>
<defs>
<clipPath id="clip0_2_57750">
<rect width="24" height="24" fill="white"/>
</clipPath>
</defs>
</svg>
